# xmcd
#
# Track frame offsets:
#	150
#	25843
#	42100
#	59878
#	84853
#	104273
#	125533
#	153655
#	173355
#	193145
#	215055
#	234548
#	252473
#
# Disc length: 3638 seconds
#
# Revision: 44
# Processed by: cddbd v1.5.2PL0 Copyright (c) Steve Scherf et al.
# Submitted via: audiograbber 1.83.01
#
DISCID=b30e340d
DTITLE=Mike and The Mechanics - Hits
DYEAR=1996
DGENRE=Retro
TTITLE0=All I Need Is A Miracle '96
TTITLE1=Over My Shoulder
TTITLE2=Word Of Mouth
TTITLE3=The Living Years
TTITLE4=Another Cup Of Coffee
TTITLE5=Nobody's Perfect
TTITLE6=Silent Running
TTITLE7=Nobody Knows
TTITLE8=Get Up
TTITLE9=A Time And Place
TTITLE10=Taken In
TTITLE11=Everybody Gets A Second Chance
TTITLE12=A Beggar On A Beach Of Gold
EXTD=
EXTT0=
EXTT1=
EXTT2=
EXTT3=
EXTT4=
EXTT5=
EXTT6=
EXTT7=
EXTT8=
EXTT9=
EXTT10=
EXTT11=
EXTT12=
PLAYORDER=
